<svg width="648" height="577" viewBox="0 0 648 577" fill="none" xmlns="http://www.w3.org/2000/svg">
<path d="M346.203 91.5705C344.662 92.1962 344.457 92.8601 345.157 94.5816C345.489 95.3971 345.313 96.5239 344.826 97.144C343.429 99.031 343.978 101.289 345.95 101.596C346.95 101.718 348.308 102.592 349.149 103.622C351.298 106.18 356.485 114.524 358.268 118.129C359.058 119.814 359.929 121.307 360.248 121.442C360.503 121.549 361.521 123.405 362.432 125.516C363.38 127.717 365.109 131.449 366.221 133.795C367.333 136.141 368.534 139.875 368.828 142.026C369.342 146.145 370.693 150.769 372.007 153.35C372.466 154.219 373.423 156.575 374.207 158.632C374.99 160.689 376.056 162.789 376.676 163.277C377.206 163.8 377.801 166.303 378.034 168.953C378.203 171.577 378.48 173.945 378.59 174.217C378.764 174.516 378.97 177.229 379.015 180.325C379.137 187.507 380.057 191.198 382.116 192.367C383.628 193.231 384.511 196.831 384.581 202.714C384.604 203.55 384.884 205.019 385.279 205.861C385.695 207.012 385.634 207.512 384.818 207.843C383.278 208.469 382.592 210.806 383.456 212.672C383.888 213.605 384.085 214.739 383.924 215.121C383.735 215.567 383.886 216.456 384.207 217.117C385.162 218.947 383.338 222.379 380.011 225.103C376.213 228.229 376.139 229.473 379.453 230.872C381.364 231.679 382.387 232.636 383.325 234.683C384.069 236.123 385.178 237.942 385.754 238.711C387.94 241.359 387.18 246.893 384.823 245.898C383.867 245.495 381.84 241.937 380.916 239.145C380.517 237.776 379.823 237.108 378.951 237.04C377.243 236.995 376.285 239.442 377.314 241.453C377.773 242.322 378.024 243.328 377.916 243.583C377.782 243.902 376.885 244.424 375.916 244.765C373.821 245.457 371.856 249.581 372.172 252.567C372.242 253.647 372.501 256.233 372.694 258.266C372.887 260.299 373.616 263.909 374.319 266.157C375.059 268.496 375.48 270.7 375.345 271.019C374.834 272.229 377.02 274.878 379.314 275.846C381.863 276.922 381.976 277.721 380.796 285.854C380.348 288.517 380.117 291.196 380.275 291.713C380.683 293.236 379.199 294.261 376.293 294.386C373.851 294.481 373.525 294.718 373.262 296.409C372.672 299.762 373.097 305.871 374.075 308.535C375.126 311.381 375.261 314.44 374.737 319.773C374.548 321.644 374.968 325.274 375.664 327.895C376.61 331.522 376.703 333.437 376 335.992C375.27 338.611 375.359 340 376.324 341.983C377.004 343.396 377.599 345.899 377.709 347.597C377.902 353.007 378.793 359.613 379.624 361.915C380.28 363.918 380.415 366.977 380.137 374.215C380.036 375.524 380.236 377.184 380.44 377.946C380.671 378.644 380.717 380.314 380.487 381.568C380.049 384.386 379.982 393.439 380.367 394.127C380.541 394.426 380.651 396.123 380.616 397.985C380.479 401.154 380.618 403.315 381.434 411.164C381.87 416.002 383.741 425.798 385.067 430.486C386.984 437.149 392.835 450.502 393.999 450.768C396.136 451.22 396.819 448.356 395.783 443.34C394.7 438.08 395.259 435.688 397.961 433.377C399.761 431.96 400.065 429.461 398.599 428.842C397.325 428.304 397.713 424.716 399.687 418.794C401.197 414.328 401.889 413.044 403.084 412.347C405.538 410.981 405.505 409.992 403.083 408.969C400.98 408.082 400.907 407.901 401.767 405.862C402.278 404.652 403.108 403.576 403.571 403.546C403.997 403.426 404.601 402.705 404.833 401.977C405.092 401.186 405.768 400.12 406.291 399.591C406.933 398.961 407.01 398.243 406.451 397.256C405.717 395.971 405.808 395.934 407.585 397.06C409.792 398.591 410.477 397.68 410.127 393.704C409.809 388.767 408.452 386.468 405.138 385.069C402.398 383.912 402.096 383.56 401.883 381.218C401.767 379.893 401.832 378.494 402.03 378.203C403.068 376.989 402.529 374.886 400.638 372.962C398.738 370.884 398.728 370.729 399.922 366.655C400.608 364.318 400.996 362.155 400.758 361.829C400.547 361.44 400.561 360.695 400.829 360.058C401.098 359.421 401.07 357.532 400.715 355.882C400.388 354.167 400.379 352.588 400.768 352.377C402.188 351.325 402.984 345.882 402.01 343.744C400.676 340.854 402.723 331.736 405.498 327.654C409.471 321.975 409.938 321.047 409.986 319.866C410.007 318.749 409.88 318.695 408.011 319.032C406.94 319.256 405.732 319.271 405.35 319.11C404.522 318.76 407.668 311.307 408.711 311.147C410.399 310.884 410.505 308.677 408.882 307.541C408.034 306.883 406.743 305.137 406.117 303.597C405.042 301.342 405.083 300.534 405.956 299.176C406.866 297.909 406.978 296.755 406.503 294.678C404.894 287.995 405.02 281.293 406.982 269.887C407.221 268.787 407.205 267.58 407.031 267.281C406.518 266.539 407.615 253.267 408.287 251.675C408.583 250.974 408.685 249.666 408.471 248.75C408.32 247.861 408.78 243.927 409.494 240.1C410.862 232.947 411.036 228.442 409.953 227.985C409.634 227.85 409.675 227.042 410.052 226.15C410.509 225.067 410.359 224.178 409.564 223.392C408.075 221.939 406.894 218.513 407.227 216.477C407.339 215.323 407.755 215.048 408.892 215.378C409.775 215.601 410.5 215.306 410.849 214.478C411.252 213.522 410.519 212.237 408.206 209.534C405.464 206.426 404.921 205.221 404.548 201.836C404.325 199.34 404.497 197.687 405.058 197.248C406.75 196.086 406.653 195.069 404.642 192.719C403.435 191.309 402.635 189.47 402.683 188.289C402.752 185.992 402.631 185.566 398.422 175.082C394.986 166.502 389.248 153.948 387.968 152.356C387.529 151.796 386.473 149.849 385.545 147.956C384.038 144.768 380.919 139.173 374.626 128.111C373.186 125.477 371.507 122.516 370.911 121.439C369.269 118.569 365.308 111.944 362.486 107.601C361.139 105.456 359.92 103.365 359.836 103.029C359.706 102.449 351.679 94.7828 348.112 91.8509C347.683 91.4446 346.747 91.3497 346.203 91.5705Z" fill="#FF4655"/>
<path d="M223.902 82.1269C223.358 82.3477 222.744 82.914 222.529 83.4236C222.152 84.3155 223.579 87.6947 224.508 88.162C225.4 88.5385 229.186 94.8653 230.814 98.4795C231.588 100.382 232.469 102.03 232.66 102.111C232.915 102.218 234.523 105.524 236.298 109.501C238.884 115.471 239.145 116.632 237.961 116.057C236.777 115.482 236.233 115.703 235.514 117.05C234.677 118.499 234.835 119.015 236.863 121.147C239.558 124.011 244.968 134.851 248.069 143.515C250.071 149.089 251.326 157.499 250.492 159.474C249.793 161.131 250.079 168.457 251.005 173.201C251.734 176.811 251.662 178.582 250.889 180.057C250.368 181.113 250.075 182.34 250.35 182.756C250.652 183.109 250.594 184.135 250.244 184.963C249.895 185.791 250.011 187.117 250.46 187.831C251.67 189.768 251.097 192.904 249.298 194.321C248.059 195.299 247.871 195.745 248.222 196.869C248.5 197.812 248.009 199.331 246.373 202.318C243.846 206.881 243.923 207.588 246.786 209.698C247.699 210.383 248.915 211.947 249.458 213.152C250.037 214.447 251.016 215.686 251.59 215.928C252.291 216.224 252.411 216.65 251.978 217.143C251.598 217.508 251.453 219.098 251.707 220.631C252.01 222.936 251.859 223.472 250.987 223.404C249.651 223.366 249.457 222.759 249.476 219.69C249.425 216.966 247.705 214.814 245.645 215.07C243.638 215.199 243.033 217.345 244.192 219.936L245.24 222.255L242.498 223.949C238.09 226.742 237.033 231.025 238.678 239.224C239.229 242.009 240.026 244.747 240.465 245.307C240.84 245.841 241.547 247.19 241.952 248.187C242.394 249.274 243.55 251.338 244.613 252.912C246.399 255.618 246.446 255.863 245.032 261.346C244.224 264.682 243.843 267.899 244.204 269.177C244.438 270.402 244.477 272.444 244.248 273.699C243.914 275.734 243.454 276.291 241.433 277.164C239.477 278.064 239.134 278.52 239.331 279.654C239.535 280.416 239.792 282.476 239.901 284.173C240.075 285.897 240.864 289.008 241.648 291.065C242.542 293.393 242.899 295.571 242.542 296.771C242.213 297.908 242.122 302.748 242.339 307.568C242.66 314.459 243.101 316.971 244.504 319.515C246.367 322.929 246.313 323.056 243.13 327.041C242.327 328.053 242.421 328.543 243.735 329.698C245.022 330.917 245.236 331.833 244.784 335.395C244.466 338.638 244.656 340.144 245.736 341.501C246.523 342.659 247.256 345.37 247.455 348.456C247.634 351.234 247.977 354.155 248.181 354.917C248.385 355.679 248.504 358.956 248.494 362.179C248.485 365.403 248.623 368.989 248.884 370.15C249.108 371.22 249.161 372.518 248.999 372.9C248.704 373.601 249.042 383.651 249.419 386.137C249.522 386.781 249.574 389.505 249.562 392.202C249.55 394.898 249.792 397.703 249.996 398.465C250.2 399.226 250.581 402.239 250.833 405.197C251.285 411.242 252.37 418.455 253.257 421.156C253.535 422.099 254.01 424.176 254.263 425.709C254.517 427.242 255.719 430.977 256.998 433.994C258.904 438.551 259.453 439.383 260.678 439.15C261.722 438.99 262.316 438.115 263.426 435.131C264.222 433.065 264.681 430.557 264.494 429.577C264.37 428.624 264.446 425.954 264.733 423.674C264.956 421.366 265.173 418.005 265.118 416.181C265.126 414.383 265.396 412.32 265.846 411.61C266.458 410.517 266.984 410.514 268.651 411.368C271.83 413.085 272.711 411.355 270.771 407.234C269.264 404.046 268.935 400.379 270.273 400.944C270.592 401.079 271.142 400.485 271.519 399.594C272.003 398.447 271.872 397.866 270.98 397.49C269.323 396.79 270.37 392.354 273.165 388.58C274.337 387.048 275.388 385.09 275.466 384.372C275.571 383.591 275.876 383.044 276.195 383.179C277.47 383.717 278.256 381.497 277.597 378.967C277.189 377.444 277.026 375.874 277.187 375.492C277.671 374.345 275.754 372.485 272.695 371.194C268.68 369.499 267.86 367.352 269.607 363.211C270.818 360.344 270.825 359.972 269.336 358.518C267.381 356.567 267.278 355.923 268.196 352.858C269.4 348.938 269.572 343.907 268.56 341.678C267.944 340.292 267.925 338.558 268.612 336.221C269.137 334.266 269.831 330.131 270.122 326.951C271.245 315.041 271.511 313.878 274.581 309.094L277.336 304.703L276.27 302.602C274.719 299.696 274.771 297.616 276.331 293.921C277.487 291.182 277.555 290.31 276.711 288.752C276.114 287.675 275.563 284.891 275.467 282.448C275.345 280.07 275.085 277.484 274.854 276.786C274.687 276.115 274.512 272.438 274.555 268.779C274.625 265.056 274.423 261.443 274.192 260.745C273.693 259.258 274.218 249.122 274.89 247.53C275.105 247.02 275.234 245.648 275.127 244.477C275.021 243.307 275.403 240.09 275.905 237.3C278.142 224.885 278.975 219.532 279.04 218.133C279.017 217.298 279.304 215.017 279.647 213.136C280.163 209.601 279.776 203.583 278.855 201.318C278.449 200.321 278.648 200.03 280.198 199.558L281.993 199.04L280.765 195.369C279.814 192.641 279.027 191.483 277.688 190.919C276.732 190.515 275.81 189.675 275.771 189.058C275.731 188.441 275.239 186.582 274.64 184.978C274.131 183.337 273.556 181.143 273.422 180.036C273.262 178.993 273.062 177.332 272.848 176.416C272.557 174.792 272.648 174.756 274.915 175.788C276.928 176.712 277.391 176.683 278.12 175.489C278.623 174.651 278.584 174.034 278.01 173.792C277.5 173.577 276.284 172.012 275.312 170.401C274.303 168.699 273.315 167.306 273.123 167.226C270.893 166.284 263.792 147 261.991 136.858C261.757 135.633 261.141 134.247 260.584 133.787C260.028 133.327 259.364 131.696 259.074 130.072C258.485 127.197 256.539 123.448 251.472 115.531C250.015 113.114 248.255 110.345 247.669 109.422C246.55 107.448 241.472 100.802 237.979 96.6252C236.708 95.1883 234.312 92.1502 232.582 89.844C228.228 84.3284 225.261 81.5749 223.902 82.1269Z" fill="#FF4655"/>
<path d="M291.918 115.941C290.008 117.086 289.913 118.022 291.562 120.519C293.074 122.808 294.053 127.425 293.354 129.081C293.085 129.718 292.182 130.613 291.376 131.098C288.986 132.491 289.046 133.417 291.723 134.547C293.826 135.435 294.164 135.878 293.871 137.105C293.622 138.051 294.403 139.581 296.35 141.904C298.965 144.96 299.085 145.386 297.9 146.236C297.041 146.849 296.682 147.523 296.886 148.285C299.176 158.333 299.1 161.003 296.443 161.608C295.255 161.932 295.147 162.187 295.37 164.683C295.673 166.987 296.113 167.548 298.199 168.654C299.547 169.373 301.848 169.969 303.21 169.943C305.69 169.939 305.854 170.084 307.972 173.604C310.914 178.374 312.338 181.227 314.179 185.757C315.515 189.173 315.565 189.944 314.361 193.864C313.221 197.811 313.224 198.338 314.548 199.647C315.782 200.994 315.821 201.611 314.442 206.658C313.099 211.795 312.82 212.278 311.001 213.386C309.96 214.073 308.876 215.041 308.661 215.551C308.177 216.697 309.605 218.651 311.644 219.512C312.472 219.862 312.747 220.278 312.257 220.371C311.096 220.632 308.709 222.551 308.252 223.634C307.902 224.462 308.707 225.402 312.851 229.103C314.759 230.809 314.769 230.963 313.446 231.606C312.06 232.222 311.926 232.54 312.102 234.791C312.301 237.877 311.423 240.134 309.934 240.106C309.061 240.038 308.638 240.685 308.069 242.921C307.679 244.558 307.443 246.184 307.536 246.674C307.721 247.127 307.558 248.935 307.359 250.652C306.816 254.251 306.877 261.932 307.427 262.765C307.601 263.063 308.042 265.576 308.348 268.408C308.695 271.856 308.569 273.755 307.945 274.166C307.293 274.642 307.346 275.94 307.995 278.316C309.173 282.641 310.219 287.811 310.809 292.638C311.263 295.832 311.041 296.714 309.512 299.446C307.849 302.497 307.832 302.715 309.12 303.934C310.608 305.388 310.898 308.437 309.968 312.773C309.632 314.282 309.842 316.097 310.411 317.238C311.034 318.252 311.413 319.312 311.332 319.503C311.171 319.886 313.057 327.512 313.516 328.381C314.049 329.432 314.773 333.94 314.781 336.946C314.837 338.771 315.091 340.304 315.409 340.438C315.664 340.546 315.516 341.609 315.032 342.756C313.499 346.387 313.57 349.419 315.284 355.321C316.579 359.546 316.812 362.196 316.383 365.167C315.58 370.983 316.042 377.182 317.755 383.084C319.375 388.496 319.633 389.13 322.122 394.084C324.906 399.762 327.845 399.202 327.602 393.02C327.472 391.014 328.12 386.633 328.864 383.27C330.116 378.169 330.198 376.553 329.328 373.633C328.337 370.288 328.843 366.599 331.046 359.423C331.376 358.286 331.555 356.26 331.402 354.845C331.206 352.285 331.206 352.285 334.059 350.863C337.546 349.182 337.745 348.891 336.808 345.418C336.4 343.895 336.236 342.325 336.398 341.942C336.559 341.56 336.419 340.826 336.08 340.382C335.293 339.224 335.184 332.724 335.868 328.434C336.404 325.208 336.32 324.872 334.536 324.119L332.624 323.312L331.024 327.815L329.359 332.292L328.489 329.373C326.936 324.514 326.502 321.629 326.282 316.282C326.011 310.163 326.485 308.862 328.992 308.794C331.498 308.727 333.286 305.203 331.246 304.342C330.418 303.992 330.16 303.358 330.456 302.657C330.725 302.02 330.793 301.148 330.635 300.632C330.24 299.789 330.819 297.707 332.21 294.767C332.677 293.838 334.023 292.605 335.356 292.117C338.464 290.802 339.365 287.955 337.051 286.678C334.928 285.481 335.16 284.754 337.666 284.686C338.72 284.68 339.663 284.403 339.797 284.084C340.093 283.383 338.907 280.856 337.794 279.936C337.174 279.449 337.436 279.185 338.852 279.032C340.64 278.886 340.841 279.121 341.444 281.252C342.297 284.389 344.306 284.787 345.707 282.001C346.255 280.881 347.565 279.557 348.679 279.052C352.566 277.315 353.215 274.887 351.919 267.285C350.118 257.143 349.419 255.421 346.216 252.869C343.671 250.894 343.487 250.441 344.133 248.912C344.536 247.957 345.285 247.072 345.684 247.015C346.882 246.845 347.928 243.834 347.069 243.022C346.64 242.615 346.627 241.934 347.034 241.505C347.557 240.976 347.967 241.074 348.607 241.869C349.083 242.52 350.076 243.015 350.666 243.039C352.656 243.128 353.05 240.592 351.607 237.431C350.595 235.203 350.452 233.942 351.097 232.413C351.823 230.693 351.542 229.223 349.855 224.683C348.666 221.629 347.887 218.674 348.129 218.1C349.07 215.871 346.61 208.002 343.098 202.092C342.364 200.806 342.03 199.464 342.436 199.035C342.752 198.643 342.841 196.654 342.547 194.504C342.29 192.444 341.984 189.612 341.904 188.378C341.748 186.436 341.309 185.875 339.159 184.743C336.818 183.529 336.406 182.905 334.917 178.073C332.614 170.722 325.986 154.939 323.614 151.311C322.515 149.646 321.332 147.646 320.936 146.803C320.541 145.961 319.103 143.853 317.659 142.117C316.241 140.318 315.078 138.626 314.994 138.291C314.733 137.13 302.058 123.223 298.317 119.993C296.218 118.206 294.236 116.319 293.925 115.812C293.64 115.242 292.959 115.254 291.918 115.941Z" fill="#FF4655"/>
</svg>
